<svg width="161" height="160" viewBox="0 0 161 160" fill="none" xmlns="http://www.w3.org/2000/svg">
    <g clip-path="url(#clip0_29_691)">
        <path d="M8 0C3.84667 0 0.5 3.34667 0.5 7.5V152.5C0.5 156.653 3.84667 160 8 160H153C157.153 160 160.5 156.653 160.5 152.5V7.5C160.5 3.34667 157.153 0 153 0H8ZM123.753 65C127.833 65 131.447 65.2467 134.6 65.74C137.574 66.1856 140.493 66.9454 143.307 68.0067V84.3933C141.956 83.4592 140.521 82.6535 139.02 81.9867C137.472 81.2902 135.874 80.7108 134.24 80.2533C131.144 79.3906 127.947 78.9423 124.733 78.92C122.733 78.92 120.913 79.1067 119.273 79.4933C117.812 79.8059 116.409 80.3506 115.12 81.1067C113.987 81.8 113.12 82.6333 112.5 83.6C111.876 84.5743 111.552 85.71 111.567 86.8667C111.567 88.1733 111.92 89.3533 112.607 90.3933C113.3 91.4333 114.287 92.42 115.56 93.3533C116.833 94.2867 118.38 95.1933 120.2 96.0867C122.02 96.9867 124.08 97.9133 126.373 98.86C129.507 100.173 132.32 101.573 134.813 103.047C137.307 104.527 139.447 106.2 141.233 108.067C143.02 109.927 144.38 112.053 145.327 114.447C146.273 116.84 146.753 119.62 146.753 122.8C146.753 127.18 145.92 130.867 144.267 133.84C142.651 136.772 140.333 139.258 137.52 141.073C134.488 142.996 131.127 144.343 127.607 145.047C123.833 145.847 119.853 146.247 115.673 146.247C111.559 146.265 107.453 145.899 103.407 145.153C99.9062 144.548 96.5113 143.441 93.3267 141.867V124.333C99.3519 129.461 106.995 132.294 114.907 132.333C117.127 132.333 119.067 132.133 120.72 131.733C122.38 131.333 123.76 130.773 124.873 130.067C125.98 129.347 126.807 128.507 127.36 127.533C127.972 126.4 128.25 125.117 128.162 123.832C128.075 122.547 127.626 121.313 126.867 120.273C125.876 118.963 124.665 117.835 123.287 116.94C121.578 115.807 119.778 114.817 117.907 113.98C115.688 112.967 113.45 111.998 111.193 111.073C105.073 108.52 100.513 105.393 97.5067 101.707C94.5067 98.02 93 93.56 93 88.34C93 84.2467 93.82 80.7333 95.46 77.7933C97.1 74.8533 99.3267 72.4333 102.153 70.5333C105.143 68.561 108.462 67.1407 111.953 66.34C115.82 65.4284 119.781 64.9786 123.753 65ZM23 66.2533H86.7533V80.6933H63.8733V145H45.76V80.6933H23V66.2533Z" fill="#64748B" />
    </g>
    <defs>
        <clipPath id="clip0_29_691">
            <rect width="160" height="160" fill="white" transform="translate(0.5)" />
        </clipPath>
    </defs>
</svg>